<svg width="20" height="20" viewBox="0 0 20 20" fill="none" xmlns="http://www.w3.org/2000/svg">
<g id="Frame 48366">
<g id="container">
<g id="shape">
<path d="M4.29998 10C4.68657 10 4.99998 10.3134 4.99998 10.7V15.3C4.99998 15.6866 4.68657 16 4.29998 16C3.91338 16 3.59998 15.6866 3.59998 15.3V10.7C3.59998 10.3134 3.91338 10 4.29998 10Z" fill="#191919"/>
<path d="M8.80002 10.7C8.80002 10.3134 8.48662 10 8.10002 10C7.71343 10 7.40002 10.3134 7.40002 10.7V15.3C7.40002 15.6866 7.71343 16 8.10002 16C8.48662 16 8.80002 15.6866 8.80002 15.3V10.7Z" fill="#191919"/>
<path d="M11.9 10C12.2866 10 12.6 10.3134 12.6 10.7V15.3C12.6 15.6866 12.2866 16 11.9 16C11.5134 16 11.2 15.6866 11.2 15.3V10.7C11.2 10.3134 11.5134 10 11.9 10Z" fill="#191919"/>
<path d="M16.4 10.7C16.4 10.3134 16.0866 10 15.7 10C15.3134 10 15 10.3134 15 10.7V15.3C15 15.6866 15.3134 16 15.7 16C16.0866 16 16.4 15.6866 16.4 15.3V10.7Z" fill="#191919"/>
<path fill-rule="evenodd" clip-rule="evenodd" d="M10.7 0.7C10.7 0.313401 10.3866 0 9.99999 0C9.61339 0 9.29999 0.313401 9.29999 0.7V1.69949L3.72051 7H1.7C0.761117 7 0 7.76111 0 8.7V17.3C0 18.2389 0.761117 19 1.7 19H18.3C19.2389 19 20 18.2389 20 17.3V8.7C20 7.76111 19.2389 7 18.3 7H17.249L10.7 1.66727V0.7ZM9.29999 3.63053V4.3C9.29999 4.6866 9.61339 5 9.99999 5C10.3866 5 10.7 4.6866 10.7 4.3V3.47271L15.0317 7H5.75318L9.29999 3.63053ZM1.4 8.7C1.4 8.53431 1.53431 8.4 1.7 8.4H18.3C18.4657 8.4 18.6 8.53431 18.6 8.7V17.3C18.6 17.4657 18.4657 17.6 18.3 17.6H1.7C1.53431 17.6 1.4 17.4657 1.4 17.3V8.7Z" fill="#191919"/>
</g>
</g>
</g>
</svg>
