<svg width="20" height="20" viewBox="0 0 20 20" fill="none" xmlns="http://www.w3.org/2000/svg">
<g id="Frame 48366">
<g id="picture">
<g id="shape">
<path fill-rule="evenodd" clip-rule="evenodd" d="M9.99976 7.00004C9.99976 8.65689 8.65661 10 6.99976 10C5.3429 10 3.99976 8.65689 3.99976 7.00004C3.99976 5.34318 5.3429 4.00004 6.99976 4.00004C8.65661 4.00004 9.99976 5.34318 9.99976 7.00004ZM8.59976 7.00004C8.59976 7.88369 7.88341 8.60004 6.99976 8.60004C6.1161 8.60004 5.39976 7.88369 5.39976 7.00004C5.39976 6.11638 6.1161 5.40004 6.99976 5.40004C7.88341 5.40004 8.59976 6.11638 8.59976 7.00004Z" fill="#191919"/>
<path fill-rule="evenodd" clip-rule="evenodd" d="M0 17C0 18.6568 1.34315 20 3.00001 20L17 20C18.6569 20 20 18.6568 20 17L20 3C20 1.34314 18.6569 0 17 0H3C1.34315 0 0 1.34315 0 3V17ZM3 18.6C2.11635 18.6 1.4 17.8836 1.4 17V16.9953L4.55778 13.048L8.00476 16.495C8.15305 16.6433 8.36001 16.7173 8.56871 16.6966C8.7774 16.676 8.96584 16.5628 9.08217 16.3883L15.6085 6.59879L18.6 9.59026L18.6 17C18.6 17.8836 17.8837 18.6 17 18.6L3 18.6ZM1.4 3L1.4 14.7542L3.95312 11.5628C4.07751 11.4073 4.26222 11.3121 4.46102 11.3011C4.65983 11.2901 4.85392 11.3643 4.99471 11.5051L8.39094 14.9013L14.9173 5.11175C15.0336 4.93726 15.2221 4.82412 15.4308 4.80345C15.6395 4.78279 15.8464 4.85678 15.9947 5.00507L18.6 7.61036V3C18.6 2.11634 17.8837 1.4 17 1.4L3 1.4C2.11635 1.4 1.4 2.11635 1.4 3Z" fill="#191919"/>
</g>
</g>
</g>
</svg>
