<svg width="20" height="20" viewBox="0 0 20 20" fill="none" xmlns="http://www.w3.org/2000/svg">
<g id="Frame 48366">
<g id="quality-criteria">
<g id="shape">
<path d="M5.2936 2.07109C5.4985 1.74326 5.39884 1.31139 5.071 1.10649C4.74317 0.901598 4.3113 1.00126 4.1064 1.32909L2.08852 4.5577L1.21068 3.62134C0.946267 3.3393 0.503282 3.32501 0.221243 3.58942C-0.0607951 3.85383 -0.0750849 4.29681 0.189326 4.57885L1.68933 6.17885C1.83794 6.33737 2.05173 6.41789 2.26799 6.39678C2.48425 6.37568 2.67844 6.25535 2.7936 6.07109L5.2936 2.07109Z" fill="#191919"/>
<path d="M7.7 3.00009C7.3134 3.00009 7 3.31349 7 3.70009C7 4.08669 7.3134 4.40009 7.7 4.40009L19.3 4.40009C19.6866 4.40009 20 4.08669 20 3.70009C20 3.31349 19.6866 3.00009 19.3 3.00009L7.7 3.00009Z" fill="#191919"/>
<path d="M7.7 9.30009C7.3134 9.30009 7 9.61349 7 10.0001C7 10.3867 7.3134 10.7001 7.7 10.7001L19.3 10.7001C19.6866 10.7001 20 10.3867 20 10.0001C20 9.6135 19.6866 9.30009 19.3 9.30009H7.7Z" fill="#191919"/>
<path d="M7 16.3001C7 15.9135 7.3134 15.6001 7.7 15.6001H19.3C19.6866 15.6001 20 15.9135 20 16.3001C20 16.6867 19.6866 17.0001 19.3 17.0001H7.7C7.3134 17.0001 7 16.6867 7 16.3001Z" fill="#191919"/>
<path d="M5.071 7.4065C5.39884 7.6114 5.4985 8.04326 5.2936 8.3711L2.7936 12.3711C2.67844 12.5554 2.48425 12.6757 2.26799 12.6968C2.05173 12.7179 1.83794 12.6374 1.68933 12.4789L0.189326 10.8789C-0.0750849 10.5968 -0.0607951 10.1538 0.221243 9.88942C0.503282 9.62501 0.946267 9.6393 1.21068 9.92134L2.08852 10.8577L4.1064 7.6291C4.3113 7.30126 4.74317 7.2016 5.071 7.4065Z" fill="#191919"/>
<path d="M5.2936 14.6711C5.4985 14.3433 5.39884 13.9114 5.071 13.7065C4.74317 13.5016 4.3113 13.6013 4.1064 13.9291L2.08852 17.1577L1.21068 16.2213C0.946267 15.9393 0.503282 15.925 0.221243 16.1894C-0.0607951 16.4538 -0.0750849 16.8968 0.189326 17.1789L1.68933 18.7789C1.83794 18.9374 2.05173 19.0179 2.26799 18.9968C2.48425 18.9757 2.67844 18.8554 2.7936 18.6711L5.2936 14.6711Z" fill="#191919"/>
</g>
</g>
</g>
</svg>
